<svg width="80" height="80" viewBox="0 0 80 80" fill="none" xmlns="http://www.w3.org/2000/svg">
<path d="M17 16.6667C17 14.8986 17.7024 13.2029 18.9526 11.9526C20.2029 10.7024 21.8986 10 23.6667 10H39.5C39.721 10 39.933 10.0878 40.0893 10.2441C40.2455 10.4004 40.3333 10.6123 40.3333 10.8333V26.6667C40.3333 28.4348 41.0357 30.1305 42.286 31.3807C43.5362 32.631 45.2319 33.3333 47 33.3333H62.8333C63.0543 33.3333 63.2663 33.4211 63.4226 33.5774C63.5789 33.7337 63.6667 33.9457 63.6667 34.1667V63.3333C63.6667 65.1014 62.9643 66.7971 61.714 68.0474C60.4638 69.2976 58.7681 70 57 70H23.6667C21.8986 70 20.2029 69.2976 18.9526 68.0474C17.7024 66.7971 17 65.1014 17 63.3333V16.6667Z" fill="#EEBBC3"/>
<path d="M43.332 26.6669V12.0135C43.3317 11.8485 43.3805 11.6871 43.472 11.5498C43.5635 11.4125 43.6938 11.3054 43.8463 11.2422C43.9987 11.179 44.1665 11.1625 44.3284 11.1948C44.4902 11.2271 44.6388 11.3067 44.7554 11.4235L61.9087 28.5769C62.0255 28.6934 62.1052 28.842 62.1374 29.0039C62.1697 29.1657 62.1532 29.3335 62.09 29.486C62.0268 29.6384 61.9198 29.7687 61.7825 29.8602C61.6451 29.9518 61.4837 30.0005 61.3187 30.0002H46.6654C45.7813 30.0002 44.9335 29.649 44.3083 29.0239C43.6832 28.3988 43.332 27.5509 43.332 26.6669Z" fill="#FF526E"/>
<path d="M24.7031 48.5449H28.1426C29.877 48.5449 31.0723 49.6992 31.0723 51.4395C31.0723 53.1738 29.8359 54.334 28.0547 54.334H26.4727V57H24.7031V48.5449ZM26.4727 49.9453V52.9512H27.668C28.6816 52.9512 29.2734 52.4121 29.2734 51.4453C29.2734 50.4844 28.6875 49.9453 27.6738 49.9453H26.4727ZM32.1211 48.5449H35.5605C37.2949 48.5449 38.4902 49.6992 38.4902 51.4395C38.4902 53.1738 37.2539 54.334 35.4727 54.334H33.8906V57H32.1211V48.5449ZM33.8906 49.9453V52.9512H35.0859C36.0996 52.9512 36.6914 52.4121 36.6914 51.4453C36.6914 50.4844 36.1055 49.9453 35.0918 49.9453H33.8906ZM43.3301 57H41.5605V50.0039H39.1172V48.5449H45.7793V50.0039H43.3301V57ZM46.3066 57L48.9902 52.7637V52.7168L46.3242 48.5449H48.4043L50.1973 51.5918H50.2441L52.0547 48.5449H54.0293L51.2637 52.752V52.793L53.9941 57H51.9785L50.127 54.041H50.0801L48.2168 57H46.3066Z" fill="#FF526E"/>
</svg>
