<svg width="80" height="80" viewBox="0 0 80 80" fill="none" xmlns="http://www.w3.org/2000/svg">
<path d="M17 16.6667C17 14.8986 17.7024 13.2029 18.9526 11.9526C20.2029 10.7024 21.8986 10 23.6667 10H39.5C39.721 10 39.933 10.0878 40.0893 10.2441C40.2455 10.4004 40.3333 10.6123 40.3333 10.8333V26.6667C40.3333 28.4348 41.0357 30.1305 42.286 31.3807C43.5362 32.631 45.2319 33.3333 47 33.3333H62.8333C63.0543 33.3333 63.2663 33.4211 63.4226 33.5774C63.5789 33.7337 63.6667 33.9457 63.6667 34.1667V63.3333C63.6667 65.1014 62.9643 66.7971 61.714 68.0474C60.4638 69.2976 58.7681 70 57 70H23.6667C21.8986 70 20.2029 69.2976 18.9526 68.0474C17.7024 66.7971 17 65.1014 17 63.3333V16.6667Z" fill="#F9FFEE"/>
<path d="M43.332 26.6669V12.0135C43.3317 11.8485 43.3805 11.6871 43.472 11.5498C43.5635 11.4125 43.6938 11.3054 43.8463 11.2422C43.9987 11.179 44.1665 11.1625 44.3284 11.1948C44.4902 11.2271 44.6388 11.3067 44.7554 11.4235L61.9087 28.5769C62.0255 28.6934 62.1052 28.842 62.1374 29.0039C62.1697 29.1657 62.1532 29.3335 62.09 29.486C62.0268 29.6384 61.9198 29.7687 61.7825 29.8602C61.6451 29.9518 61.4837 30.0005 61.3187 30.0002H46.6654C45.7813 30.0002 44.9335 29.649 44.3083 29.0239C43.6832 28.3988 43.332 27.5509 43.332 26.6669Z" fill="#A5FF13"/>
<path d="M23.7031 48.5449H26.9316C29.4688 48.5449 30.9629 50.0566 30.9629 52.7402C30.9629 55.4238 29.4688 57 26.9316 57H23.7031V48.5449ZM25.4727 50.0039V55.5352H26.7207C28.3027 55.5352 29.1582 54.5742 29.1582 52.7461C29.1582 50.9766 28.2793 50.0039 26.7207 50.0039H25.4727ZM35.9199 48.3984C38.4219 48.3984 39.998 50.0801 39.998 52.7754C39.998 55.4648 38.4219 57.1465 35.9199 57.1465C33.4121 57.1465 31.8418 55.4648 31.8418 52.7754C31.8418 50.0801 33.4121 48.3984 35.9199 48.3984ZM35.9199 49.875C34.5371 49.875 33.6465 51 33.6465 52.7754C33.6465 54.5449 34.5312 55.6641 35.9199 55.6641C37.3027 55.6641 38.1875 54.5449 38.1875 52.7754C38.1875 51 37.3027 49.875 35.9199 49.875ZM44.8789 57.1465C42.418 57.1465 40.877 55.5 40.877 52.7695C40.877 50.0449 42.4297 48.3984 44.8789 48.3984C46.9121 48.3984 48.459 49.6875 48.5938 51.5801H46.8711C46.707 50.543 45.9102 49.8633 44.8789 49.8633C43.543 49.8633 42.6816 50.9824 42.6816 52.7637C42.6816 54.5684 43.5312 55.6816 44.8848 55.6816C45.9336 55.6816 46.6895 55.0664 46.877 54.0645H48.5996C48.4004 55.9512 46.9531 57.1465 44.8789 57.1465ZM48.8926 57L51.5762 52.7637V52.7168L48.9102 48.5449H50.9902L52.7832 51.5918H52.8301L54.6406 48.5449H56.6152L53.8496 52.752V52.793L56.5801 57H54.5645L52.7129 54.041H52.666L50.8027 57H48.8926Z" fill="#7BC600"/>
</svg>
