<svg width="28" height="28" viewBox="0 0 28 28" fill="none" xmlns="http://www.w3.org/2000/svg">
<path d="M8.66437 21H23.334C23.3305 22.085 23.3084 22.8935 23.2022 23.5317C23.0739 24.2935 22.8405 24.696 22.4835 24.983C22.1254 25.27 21.6237 25.4578 20.6752 25.5593C19.6987 25.6643 18.4049 25.6667 16.5499 25.6667H11.3815C9.52654 25.6667 8.23154 25.6655 7.25621 25.5593C6.30771 25.4578 5.80604 25.27 5.44787 24.983C5.09087 24.696 4.85754 24.2935 4.72921 23.5328C4.7198 23.4742 4.71124 23.4155 4.70354 23.3567C4.65687 23.0172 4.63354 22.8468 4.78054 22.4467C4.92871 22.0453 4.99171 21.9835 5.12004 21.8575C5.53675 21.4624 6.05631 21.1928 6.61921 21.0793C6.95754 21.007 7.40087 21 8.66437 21Z" fill="#22DD3B"/>
<path opacity="0.5" d="M5.51614 3.18842C5.87314 2.82909 6.37247 2.59575 7.31747 2.46742C8.29047 2.33559 9.57847 2.33325 11.4265 2.33325H16.5761C18.4241 2.33325 19.7121 2.33559 20.6851 2.46742C21.6301 2.59575 22.1295 2.82909 22.4865 3.18842C22.8423 3.54775 23.0745 4.05175 23.2016 5.00492C23.3323 5.98492 23.3346 7.28575 23.3346 9.14892V20.9999H8.66497C7.4003 20.9999 6.9593 21.0069 6.6198 21.0793C6.0213 21.2076 5.4998 21.4841 5.12064 21.8574C4.9923 21.9834 4.9293 22.0453 4.78114 22.4466C4.71042 22.6169 4.67205 22.7989 4.66797 22.9833V9.14892C4.66797 7.28575 4.6703 5.98609 4.80097 5.00492C4.92814 4.05292 5.1603 3.54775 5.51614 3.18842Z" fill="#22DD3B"/>
<path d="M8.45703 8.16675C8.45703 7.93468 8.54922 7.71212 8.71331 7.54803C8.87741 7.38394 9.09997 7.29175 9.33203 7.29175H18.6654C18.8974 7.29175 19.12 7.38394 19.2841 7.54803C19.4482 7.71212 19.5404 7.93468 19.5404 8.16675C19.5404 8.39881 19.4482 8.62137 19.2841 8.78547C19.12 8.94956 18.8974 9.04175 18.6654 9.04175H9.33203C9.09997 9.04175 8.87741 8.94956 8.71331 8.78547C8.54922 8.62137 8.45703 8.39881 8.45703 8.16675ZM9.33203 11.3751C9.09997 11.3751 8.87741 11.4673 8.71331 11.6314C8.54922 11.7955 8.45703 12.018 8.45703 12.2501C8.45703 12.4821 8.54922 12.7047 8.71331 12.8688C8.87741 13.0329 9.09997 13.1251 9.33203 13.1251H15.1654C15.3974 13.1251 15.62 13.0329 15.7841 12.8688C15.9482 12.7047 16.0404 12.4821 16.0404 12.2501C16.0404 12.018 15.9482 11.7955 15.7841 11.6314C15.62 11.4673 15.3974 11.3751 15.1654 11.3751H9.33203Z" fill="#22DD3B"/>
</svg>
