<svg width="500" height="373" viewBox="0 0 500 373" fill="none" xmlns="http://www.w3.org/2000/svg">
<path d="M500 327.446H0V327.696H500V327.446Z" fill="#EBEBEB"/>
<path d="M449.903 343.542H423.668V343.792H449.903V343.542Z" fill="#EBEBEB"/>
<path d="M356.762 340.284H322.527V340.534H356.762V340.284Z" fill="#EBEBEB"/>
<path d="M415.777 334.256H389.332V334.506H415.777V334.256Z" fill="#EBEBEB"/>
<path d="M110.888 335.936H67.6953V336.186H110.888V335.936Z" fill="#EBEBEB"/>
<path d="M58.7939 335.936H52.4609V336.186H58.7939V335.936Z" fill="#EBEBEB"/>
<path d="M187.668 340.159H131.473V340.409H187.668V340.159Z" fill="#EBEBEB"/>
<path d="M237.014 282.848H43.915C40.768 282.848 38.207 280.287 38.207 277.14V5.708C38.207 2.561 40.768 0 43.915 0H237.014C240.16 0 242.721 2.561 242.721 5.708V277.14C242.721 280.287 240.16 282.848 237.014 282.848ZM43.915 0.250999C40.905 0.250999 38.457 2.699 38.457 5.709V277.141C38.457 280.151 40.905 282.599 43.915 282.599H237.014C240.023 282.599 242.471 280.151 242.471 277.141V5.708C242.471 2.699 240.023 0.25 237.014 0.25L43.915 0.250999Z" fill="#EBEBEB"/>
<path d="M453.309 282.848H260.211C257.064 282.848 254.504 280.287 254.504 277.14V5.708C254.504 2.561 257.065 0 260.211 0H453.309C456.457 0 459.017 2.561 459.017 5.708V277.14C459.018 280.287 456.457 282.848 453.309 282.848ZM260.211 0.250999C257.202 0.250999 254.754 2.699 254.754 5.709V277.141C254.754 280.151 257.202 282.599 260.211 282.599H453.309C456.319 282.599 458.767 280.151 458.767 277.141V5.708C458.767 2.699 456.319 0.25 453.309 0.25L260.211 0.250999Z" fill="#EBEBEB"/>
<path d="M337.951 28.5059H66.6289V183.947H337.951V28.5059Z" fill="#E6E6E6"/>
<path d="M341.988 28.5059H68.5156V183.947H341.988V28.5059Z" fill="#F0F0F0"/>
<path d="M336.336 177.601V34.8516L74.1629 34.8516V177.601L336.336 177.601Z" fill="#FAFAFA"/>
<path d="M106.344 177.601L139.501 34.8516H182.967L149.809 177.601H106.344Z" fill="white"/>
<path d="M156.84 177.601L189.998 34.8516H209.627L176.47 177.601H156.84Z" fill="white"/>
<path d="M234.73 177.601L267.888 34.8516H301.413L268.255 177.601H234.73Z" fill="white"/>
<path d="M336.336 177.601V34.8516H335.619V177.601H336.336Z" fill="#E6E6E6"/>
<path d="M213.401 28.5059H197.102V183.947H213.401V28.5059Z" fill="#F0F0F0"/>
<path d="M197.102 177.601L197.102 34.8516H196.385L196.385 177.601H197.102Z" fill="#E6E6E6"/>
<path d="M205.536 28.5059H204.969V183.947H205.536V28.5059Z" fill="#E6E6E6"/>
<g opacity="0.7">
<path d="M321.4 145.432H347.484V20.2706H321.4V145.432Z" fill="#EBEBEB"/>
<path d="M321.402 20.2695H304.516V130.817H321.402V20.2695Z" fill="#E0E0E0"/>
<path d="M278.432 145.432H304.516V20.2706H278.432V145.432Z" fill="#EBEBEB"/>
<path d="M278.429 20.2695H261.543V130.817H278.429V20.2695Z" fill="#E0E0E0"/>
<path d="M235.463 145.432H261.547V20.2706H235.463V145.432Z" fill="#EBEBEB"/>
<path d="M235.46 20.2695H218.574V130.817H235.46V20.2695Z" fill="#E0E0E0"/>
<path d="M192.49 145.432H218.574L218.574 20.2706H192.49V145.432Z" fill="#EBEBEB"/>
<path d="M192.491 20.2695H175.605V130.817H192.491V20.2695Z" fill="#E0E0E0"/>
<path d="M149.521 145.432H175.605L175.605 20.2706H149.521V145.432Z" fill="#EBEBEB"/>
<path d="M149.523 20.2695H132.637V130.817H149.523V20.2695Z" fill="#E0E0E0"/>
<path d="M106.553 145.432H132.637L132.637 20.2706H106.553L106.553 145.432Z" fill="#EBEBEB"/>
<path d="M63.584 145.432H89.668L89.668 20.2706H63.584L63.584 145.432Z" fill="#EBEBEB"/>
<path d="M106.554 20.2695H89.668V130.817H106.554V20.2695Z" fill="#E0E0E0"/>
</g>
<path d="M433.183 229.381H399.637V327.446H433.183V229.381Z" fill="#E6E6E6"/>
<path d="M424.224 327.447H433.182V310.531H414.832L424.224 327.447Z" fill="#F5F5F5"/>
<path d="M228.007 229.381H194.461V327.446H228.007V229.381Z" fill="#E6E6E6"/>
<path d="M433.182 229.381H220.188V321.624H433.182V229.381Z" fill="#F5F5F5"/>
<path d="M229.145 327.447H220.188V310.531H238.536L229.145 327.447Z" fill="#F5F5F5"/>
<path d="M426.233 237.466H227.137V271.611H426.233V237.466Z" fill="#E6E6E6"/>
<path d="M426.233 278.918H227.137V313.062H426.233V278.918Z" fill="#E6E6E6"/>
<path d="M396.034 81.6768H447.301V73.4538H396.034V81.6768Z" fill="#F0F0F0"/>
<path d="M396.036 73.4551H371.586V81.6781H396.036V73.4551Z" fill="#E6E6E6"/>
<path d="M396.98 81.6738H421.669L403.669 93.4258H396.98V81.6738Z" fill="#EBEBEB"/>
<path d="M394.406 81.6738H419.095L401.094 93.4258H394.406V81.6738Z" fill="#E0E0E0"/>
<path d="M415.305 73.4561H431.352V38.2531H415.305V73.4561Z" fill="#E6E6E6"/>
<path d="M435.991 38.252H431.352V73.4549H435.991V38.252Z" fill="#F0F0F0"/>
<path d="M394.617 41.3555H415.303L420.289 73.4555H399.603L394.617 41.3555Z" fill="#E6E6E6"/>
<path d="M421.286 41.3555H415.305L420.291 73.4555H426.271L421.286 41.3555Z" fill="#F0F0F0"/>
<path d="M385.083 73.4551H408.527V37.0751H385.083V73.4551Z" fill="#EBEBEB"/>
<path d="M415.305 37.0752H408.527V73.4552H415.305V37.0752Z" fill="#F5F5F5"/>
<path d="M403.08 73.4559H402.08V51.5589C402.08 47.7609 398.99 44.6699 395.191 44.6699C391.392 44.6699 388.301 47.7599 388.301 51.5589V73.4559H387.301V51.5589C387.301 47.2089 390.84 43.6699 395.191 43.6699C399.541 43.6699 403.08 47.2089 403.08 51.5589V73.4559Z" fill="#E0E0E0"/>
<path d="M396.034 152.983H447.301V144.76H396.034V152.983Z" fill="#F0F0F0"/>
<path d="M396.036 144.76H371.586V152.983H396.036V144.76Z" fill="#E6E6E6"/>
<path d="M396.98 152.979H421.669L403.669 164.732H396.98V152.979Z" fill="#EBEBEB"/>
<path d="M394.406 152.979H419.095L401.094 164.732H394.406V152.979Z" fill="#E0E0E0"/>
<path d="M409.833 144.761H433.277V118.727H409.833V144.761Z" fill="#E0E0E0"/>
<path d="M439.283 118.727H433.277V144.761H439.283V118.727Z" fill="#F0F0F0"/>
<path d="M402.58 144.76H422.672V111.366H402.58V144.76Z" fill="#E0E0E0"/>
<path d="M426.762 111.367H422.672V144.761H426.762V111.367Z" fill="#EBEBEB"/>
<path d="M396.103 144.76H413.711V114.712H396.103V144.76Z" fill="#E6E6E6"/>
<path d="M418.802 114.713H413.711V144.761H418.802V114.713Z" fill="#F0F0F0"/>
<path d="M385.083 144.761H408.527V118.727H385.083V144.761Z" fill="#F0F0F0"/>
<path d="M411.916 118.727H408.527V144.761H411.916V118.727Z" fill="#FAFAFA"/>
<path d="M403.08 144.761H402.08V122.864C402.08 119.066 398.99 115.975 395.191 115.975C391.392 115.975 388.301 119.065 388.301 122.864V144.761H387.301V122.864C387.301 118.514 390.84 114.975 395.191 114.975C399.541 114.975 403.08 118.514 403.08 122.864V144.761Z" fill="#E0E0E0"/>
<path d="M151.703 245.771H143.07V327.447H151.703V245.771Z" fill="#F5F5F5"/>
<path d="M155.46 245.771H147.949V327.447H155.46V245.771Z" fill="#F0F0F0"/>
<path d="M64.6955 245.771H56.0625V327.447H64.6955V245.771Z" fill="#F5F5F5"/>
<path d="M68.4524 245.771H60.9414V327.447H68.4524V245.771Z" fill="#F0F0F0"/>
<path d="M184.422 245.771H175.789V327.447H184.422V245.771Z" fill="#F5F5F5"/>
<path d="M188.179 245.771H180.668V327.447H188.179V245.771Z" fill="#F0F0F0"/>
<path d="M97.4143 245.771H88.7812V327.447H97.4143V245.771Z" fill="#F5F5F5"/>
<path d="M56.0608 247.829L188.176 247.829V237.466L56.0608 237.466V247.829Z" fill="#F0F0F0"/>
<path d="M56.0623 247.829H93.6562V237.466H56.0623V247.829Z" fill="#E6E6E6"/>
<path d="M101.167 245.771H93.6562V327.447H101.167V245.771Z" fill="#F0F0F0"/>
<path d="M249.998 372.609C357.08 372.609 443.887 367.539 443.887 361.286C443.887 355.032 357.08 349.963 249.998 349.963C142.916 349.963 56.1094 355.032 56.1094 361.286C56.1094 367.539 142.916 372.609 249.998 372.609Z" fill="#F5F5F5"/>
<path d="M187.688 311.401H387.623C389.765 311.401 391.501 313.137 391.501 315.279V357.659C391.501 359.801 389.765 361.537 387.623 361.537H187.688V311.401Z" fill="#407BFF"/>
<path opacity="0.2" d="M187.688 311.401H387.623C389.765 311.401 391.501 313.137 391.501 315.279V357.659C391.501 359.801 389.765 361.537 387.623 361.537H187.688V311.401Z" fill="black"/>
<path opacity="0.2" d="M236.699 361.538H267.293V311.402H236.699V361.538Z" fill="black"/>
<path opacity="0.2" d="M280.437 361.538H295.949V311.402H280.437V361.538Z" fill="black"/>
<path d="M187.685 311.401H121.462C119.308 311.401 117.562 313.147 117.562 315.301V357.636C117.562 359.79 119.308 361.536 121.462 361.536H187.685V311.401Z" fill="#407BFF"/>
<path opacity="0.9" d="M175.488 316.788H117.562V356.152H175.488C178.298 356.152 180.576 353.874 180.576 351.064V321.876C180.576 319.065 178.298 316.788 175.488 316.788Z" fill="white"/>
<path opacity="0.2" d="M363.493 350.807C371.411 350.807 377.83 344.388 377.83 336.47C377.83 328.552 371.411 322.133 363.493 322.133C355.575 322.133 349.156 328.552 349.156 336.47C349.156 344.388 355.575 350.807 363.493 350.807Z" fill="black"/>
<path d="M202.148 275.008H402.083C404.225 275.008 405.961 276.744 405.961 278.886V307.525C405.961 309.667 404.225 311.403 402.083 311.403H202.148V275.008Z" fill="#263238"/>
<path opacity="0.2" d="M202.148 275.008H402.083C404.225 275.008 405.961 276.744 405.961 278.886V307.525C405.961 309.667 404.225 311.403 402.083 311.403H202.148V275.008Z" fill="black"/>
<path d="M202.147 275.009H135.924C133.77 275.009 132.023 276.755 132.023 278.909V307.503C132.023 309.657 133.769 311.404 135.924 311.404H202.147V275.009Z" fill="#263238"/>
<path opacity="0.9" d="M189.949 280.395H132.023V306.017H189.949C192.759 306.017 195.037 303.739 195.037 300.929V285.482C195.037 282.673 192.759 280.395 189.949 280.395Z" fill="white"/>
<path opacity="0.3" d="M244.017 302.785H383.912C386.228 302.785 388.105 300.908 388.105 298.592V287.82C388.105 285.504 386.228 283.627 383.912 283.627H244.017C241.701 283.627 239.824 285.504 239.824 287.82V298.592C239.824 300.907 241.701 302.785 244.017 302.785Z" fill="#407BFF"/>
<path opacity="0.3" d="M209.741 311.402H215.047V275.007H209.741V311.402Z" fill="#407BFF"/>
<path opacity="0.3" d="M219.436 311.402H224.742V275.007H219.436V311.402Z" fill="#407BFF"/>
<path d="M180.039 237.466H379.974C382.116 237.466 383.852 239.202 383.852 241.344V271.13C383.852 273.272 382.116 275.008 379.974 275.008H180.039V237.466Z" fill="#407BFF"/>
<path opacity="0.3" d="M180.039 237.466H379.974C382.116 237.466 383.852 239.202 383.852 241.344V271.13C383.852 273.272 382.116 275.008 379.974 275.008H180.039V237.466Z" fill="black"/>
<path opacity="0.9" d="M229.053 275.007H298.473V237.465H229.053V275.007Z" fill="white"/>
<path opacity="0.9" d="M328.294 275.007H363.492V237.465H328.294V275.007Z" fill="white"/>
<path d="M180.037 237.466H113.814C111.66 237.466 109.914 239.212 109.914 241.367V271.108C109.914 273.262 111.66 275.008 113.814 275.008H180.037V237.466Z" fill="#407BFF"/>
<path opacity="0.9" d="M167.84 242.852H109.914V269.621H167.84C170.65 269.621 172.928 267.343 172.928 264.533V247.939C172.928 245.13 170.65 242.852 167.84 242.852Z" fill="white"/>
<path d="M194.5 212.566H394.435C396.577 212.566 398.313 214.302 398.313 216.444V233.587C398.313 235.729 396.577 237.465 394.435 237.465H194.5V212.566Z" fill="#407BFF"/>
<path opacity="0.3" d="M194.5 212.566H394.435C396.577 212.566 398.313 214.302 398.313 216.444V233.587C398.313 235.729 396.577 237.465 394.435 237.465H194.5V212.566Z" fill="white"/>
<path opacity="0.2" d="M194.5 212.566H394.435C396.577 212.566 398.313 214.302 398.313 216.444V233.587C398.313 235.729 396.577 237.465 394.435 237.465H194.5V212.566Z" fill="black"/>
<path d="M194.498 212.566H128.275C126.121 212.566 124.375 214.312 124.375 216.466V233.564C124.375 235.718 126.121 237.464 128.275 237.464H194.498V212.566Z" fill="#407BFF"/>
<path opacity="0.3" d="M194.498 212.566H128.275C126.121 212.566 124.375 214.312 124.375 216.466V233.564C124.375 235.718 126.121 237.464 128.275 237.464H194.498V212.566Z" fill="white"/>
<path opacity="0.9" d="M182.301 217.952H124.375V232.078H182.301C185.111 232.078 187.389 229.8 187.389 226.99V223.039C187.389 220.23 185.111 217.952 182.301 217.952Z" fill="white"/>
<path opacity="0.4" d="M212.393 230.902H303.016V219.13H212.393V230.902Z" fill="#263238"/>
<path d="M257.493 204.332H228.9C228.548 204.332 228.262 204.618 228.262 204.97V211.944C228.262 212.297 228.548 212.582 228.9 212.582H257.493V204.332Z" fill="#407BFF"/>
<path opacity="0.2" d="M257.493 204.332H228.9C228.548 204.332 228.262 204.618 228.262 204.97V211.944C228.262 212.297 228.548 212.582 228.9 212.582H257.493V204.332Z" fill="black"/>
<path d="M257.492 204.332H268.39C268.744 204.332 269.032 204.619 269.032 204.974V211.941C269.032 212.295 268.745 212.583 268.39 212.583H257.492V204.332Z" fill="#407BFF"/>
<path opacity="0.9" d="M259.501 205.218H269.033V211.696H259.501C259.039 211.696 258.664 211.321 258.664 210.859V206.056C258.664 205.593 259.039 205.218 259.501 205.218Z" fill="white"/>
<path d="M255.114 198.343H226.521C226.169 198.343 225.883 198.629 225.883 198.981V203.694C225.883 204.046 226.169 204.332 226.521 204.332H255.114V198.343Z" fill="#263238"/>
<path opacity="0.2" d="M255.114 198.343H226.521C226.169 198.343 225.883 198.629 225.883 198.981V203.694C225.883 204.046 226.169 204.332 226.521 204.332H255.114V198.343Z" fill="black"/>
<path d="M255.113 198.343H266.011C266.366 198.343 266.653 198.63 266.653 198.985V203.69C266.653 204.044 266.366 204.332 266.011 204.332H255.113V198.343Z" fill="#263238"/>
<path opacity="0.9" d="M257.122 199.229H266.654V203.445H257.122C256.66 203.445 256.285 203.07 256.285 202.608V200.066C256.284 199.604 256.659 199.229 257.122 199.229Z" fill="white"/>
<path d="M258.754 192.165H230.161C229.809 192.165 229.523 192.451 229.523 192.803V197.705C229.523 198.057 229.809 198.343 230.161 198.343H258.754V192.165Z" fill="#407BFF"/>
<path opacity="0.3" d="M258.754 192.165H230.161C229.809 192.165 229.523 192.451 229.523 192.803V197.705C229.523 198.057 229.809 198.343 230.161 198.343H258.754V192.165Z" fill="black"/>
<path d="M258.754 192.165H269.652C270.006 192.165 270.294 192.452 270.294 192.807V197.701C270.294 198.056 270.007 198.343 269.652 198.343H258.754V192.165Z" fill="#407BFF"/>
<path opacity="0.9" d="M260.763 193.051H270.295V197.456H260.763C260.301 197.456 259.926 197.081 259.926 196.619V193.888C259.926 193.426 260.301 193.051 260.763 193.051Z" fill="white"/>
<path d="M256.372 188.066H227.779C227.427 188.066 227.141 188.352 227.141 188.704V191.525C227.141 191.877 227.427 192.163 227.779 192.163H256.372V188.066Z" fill="#407BFF"/>
<path opacity="0.3" d="M256.372 188.066H227.779C227.427 188.066 227.141 188.352 227.141 188.704V191.525C227.141 191.877 227.427 192.163 227.779 192.163H256.372V188.066Z" fill="white"/>
<path opacity="0.2" d="M256.372 188.066H227.779C227.427 188.066 227.141 188.352 227.141 188.704V191.525C227.141 191.877 227.427 192.163 227.779 192.163H256.372V188.066Z" fill="black"/>
<path d="M256.371 188.066H267.269C267.624 188.066 267.911 188.353 267.911 188.708V191.522C267.911 191.877 267.624 192.164 267.269 192.164H256.371V188.066Z" fill="#407BFF"/>
<path opacity="0.3" d="M256.371 188.066H267.269C267.624 188.066 267.911 188.353 267.911 188.708V191.522C267.911 191.877 267.624 192.164 267.269 192.164H256.371V188.066Z" fill="white"/>
<path opacity="0.9" d="M258.38 188.953H267.912V191.278H258.38C257.918 191.278 257.543 190.903 257.543 190.441V189.791C257.543 189.328 257.918 188.953 258.38 188.953Z" fill="white"/>
<path d="M255.114 182.078H226.521C226.169 182.078 225.883 182.364 225.883 182.716V187.429C225.883 187.782 226.169 188.067 226.521 188.067H255.114V182.078Z" fill="#263238"/>
<path opacity="0.2" d="M255.114 182.078H226.521C226.169 182.078 225.883 182.364 225.883 182.716V187.429C225.883 187.782 226.169 188.067 226.521 188.067H255.114V182.078Z" fill="black"/>
<path d="M255.113 182.078H262.381C262.735 182.078 263.023 182.365 263.023 182.72V187.425C263.023 187.779 262.736 188.067 262.381 188.067H255.113V182.078Z" fill="#263238"/>
<path opacity="0.9" d="M257.122 182.965H263.025V187.181H257.122C256.66 187.181 256.285 186.806 256.285 186.344V183.802C256.284 183.34 256.659 182.965 257.122 182.965Z" fill="white"/>
<path d="M258.754 175.899H230.161C229.809 175.899 229.523 176.185 229.523 176.537V181.439C229.523 181.791 229.809 182.077 230.161 182.077H258.754V175.899Z" fill="#407BFF"/>
<path opacity="0.3" d="M258.754 175.899H230.161C229.809 175.899 229.523 176.185 229.523 176.537V181.439C229.523 181.791 229.809 182.077 230.161 182.077H258.754V175.899Z" fill="black"/>
<path d="M258.754 175.899H266.022C266.376 175.899 266.664 176.186 266.664 176.541V181.435C266.664 181.79 266.377 182.077 266.022 182.077H258.754V175.899Z" fill="#407BFF"/>
<path opacity="0.9" d="M260.763 176.786H266.666V181.191H260.763C260.301 181.191 259.926 180.816 259.926 180.354V177.623C259.926 177.161 260.301 176.786 260.763 176.786Z" fill="white"/>
<path d="M256.372 171.803H227.779C227.427 171.803 227.141 172.089 227.141 172.441V175.262C227.141 175.614 227.427 175.9 227.779 175.9H256.372V171.803Z" fill="#407BFF"/>
<path opacity="0.3" d="M256.372 171.803H227.779C227.427 171.803 227.141 172.089 227.141 172.441V175.262C227.141 175.614 227.427 175.9 227.779 175.9H256.372V171.803Z" fill="white"/>
<path opacity="0.2" d="M256.372 171.803H227.779C227.427 171.803 227.141 172.089 227.141 172.441V175.262C227.141 175.614 227.427 175.9 227.779 175.9H256.372V171.803Z" fill="black"/>
<path d="M256.371 171.803H263.639C263.993 171.803 264.281 172.09 264.281 172.445V175.259C264.281 175.614 263.994 175.901 263.639 175.901H256.371V171.803Z" fill="#407BFF"/>
<path opacity="0.3" d="M256.371 171.803H263.639C263.993 171.803 264.281 172.09 264.281 172.445V175.259C264.281 175.614 263.994 175.901 263.639 175.901H256.371V171.803Z" fill="white"/>
<path opacity="0.9" d="M258.38 172.688H264.283V175.013H258.38C257.918 175.013 257.543 174.638 257.543 174.176V173.526C257.543 173.063 257.918 172.688 258.38 172.688Z" fill="white"/>
<path d="M106.753 281.544L100.156 278.237L105.509 261.842L112.106 265.149L106.753 281.544Z" fill="#FFC3BD"/>
<path d="M100.73 275.658L108.835 277.362C109.13 277.424 109.309 277.676 109.266 277.967L108.31 284.462C108.211 285.136 107.454 285.634 106.777 285.479C103.965 284.837 102.652 284.388 99.088 283.638C96.895 283.177 89.333 281.651 86.408 280.641C83.547 279.654 84.565 276.768 85.895 276.934C91.859 277.678 97.02 277.01 99.393 275.839C99.822 275.629 100.298 275.567 100.73 275.658Z" fill="#263238"/>
<path opacity="0.2" d="M112.106 265.155L105.507 261.846L102.438 271.255L109.35 273.607L112.106 265.155Z" fill="black"/>
<path d="M178.971 182.476C178.971 182.476 122.384 187.964 117.649 208.568C110.844 238.183 101.641 266.318 101.641 266.318L114.301 268.551C116.242 260.12 130.676 230.511 137.447 210.625C152.772 208.334 193.755 217.027 199.89 205.371C204.908 195.835 204.787 186.26 204.787 186.26L178.971 182.476Z" fill="#407BFF"/>
<path opacity="0.3" d="M178.971 182.476C178.971 182.476 122.384 187.964 117.649 208.568C110.844 238.183 101.641 266.318 101.641 266.318L114.301 268.551C116.242 260.12 130.676 230.511 137.447 210.625C152.772 208.334 193.755 217.027 199.89 205.371C204.908 195.835 204.787 186.26 204.787 186.26L178.971 182.476Z" fill="black"/>
<path d="M115.091 273.03L100.293 267.673L101.004 261.718L116.492 265.799L115.091 273.03Z" fill="#407BFF"/>
<path d="M97.9081 276.377C98.5741 276.517 99.3401 276.535 99.8851 276.523C99.9531 276.522 100.014 276.481 100.04 276.418C100.066 276.355 100.053 276.283 100.007 276.234C99.8101 276.025 98.0611 274.2 97.1081 274.36C96.8871 274.397 96.7171 274.533 96.6161 274.754C96.4501 275.118 96.4561 275.44 96.6351 275.711C96.8611 276.056 97.3491 276.26 97.9081 276.377ZM99.4741 276.182C98.1291 276.168 97.1871 275.928 96.9211 275.522C96.8101 275.354 96.8131 275.15 96.9281 274.896C96.9811 274.779 97.0561 274.717 97.1631 274.699C97.6771 274.614 98.7491 275.474 99.4741 276.182Z" fill="#407BFF"/>
<path d="M99.8456 276.519C99.8716 276.524 99.8996 276.524 99.9266 276.517C99.9836 276.501 100.029 276.458 100.046 276.401C100.072 276.315 100.67 274.274 100.09 273.419C99.9326 273.189 99.7096 273.06 99.4266 273.034C99.0866 273.004 98.8316 273.139 98.7096 273.415C98.3776 274.167 99.1366 275.899 99.7656 276.478C99.7876 276.499 99.8156 276.512 99.8456 276.519ZM99.4746 273.387C99.6146 273.416 99.7226 273.49 99.8046 273.611C100.152 274.121 99.9606 275.321 99.7966 276.002C99.2806 275.34 98.8056 274.046 99.0236 273.552C99.0646 273.458 99.1446 273.353 99.3956 273.375C99.4226 273.378 99.4496 273.382 99.4746 273.387Z" fill="#407BFF"/>
<path d="M185.1 130.667C184.761 134.39 184.224 137.885 183.637 141.479C183.019 145.047 182.296 148.611 181.37 152.174C180.449 155.742 179.373 159.308 177.854 162.911C177.081 164.714 176.233 166.536 175.044 168.381C174.447 169.304 173.779 170.236 172.932 171.171C172.08 172.1 171.048 173.053 169.656 173.865L169.245 174.104L169.01 174.187C166.286 175.154 164.075 174.801 162.278 174.406C160.47 173.969 158.962 173.277 157.56 172.545C156.166 171.79 154.897 170.953 153.702 170.046C153.104 169.594 152.538 169.104 151.976 168.618C151.402 168.126 150.892 167.644 150.316 167.052L153.464 162.502C154.627 162.888 155.892 163.379 157.105 163.737C158.318 164.124 159.515 164.482 160.664 164.734C161.801 165.012 162.914 165.155 163.805 165.176C164.688 165.205 165.322 164.937 165.158 164.866L164.513 165.188C164.76 165.009 165.551 164.125 166.165 162.964C166.806 161.806 167.418 160.418 167.954 158.963C169.022 156.03 169.874 152.82 170.619 149.565C171.346 146.298 171.98 142.964 172.535 139.604C173.108 136.269 173.57 132.805 173.987 129.542L185.1 130.667Z" fill="#FFC3BD"/>
<path d="M175.219 125.192C168.343 131.191 168.718 145.792 168.718 145.792L186.902 152.345C190.753 146.339 192.644 134.883 192.299 129.965C191.77 122.411 183.385 118.067 175.219 125.192Z" fill="#263238"/>
<path opacity="0.2" d="M192.31 130.247C189.043 128.682 184.569 129.179 180.149 133.039C176.141 136.529 174.597 142.958 174.016 147.706L186.896 152.348C190.682 146.447 192.564 135.301 192.31 130.247Z" fill="black"/>
<path d="M80.6647 264.069L78.4727 257.03L93.7687 248.729L95.9607 255.768L80.6647 264.069Z" fill="#FFC3BD"/>
<path d="M78.945 256.371L84.494 262.52C84.696 262.744 84.693 263.053 84.486 263.263L79.89 267.951C79.413 268.437 78.508 268.395 78.052 267.871C76.157 265.697 75.36 264.561 72.92 261.857C71.419 260.194 66.153 254.706 64.08 252.409C62.052 250.162 64.338 248.127 65.422 248.915C70.284 252.448 75.149 255.281 77.757 255.731C78.228 255.813 78.65 256.043 78.945 256.371Z" fill="#263238"/>
<path opacity="0.2" d="M95.9574 255.771L93.7644 248.729L82.6094 254.788L87.2594 260.495L95.9574 255.771Z" fill="black"/>
<path d="M191.802 184.547C191.802 184.547 152.966 189.751 144.976 200.363C131.051 218.858 86.957 249.325 86.957 249.325L90.972 262.217C90.972 262.217 151.026 236.883 161.707 215.704C181.328 214.198 213.253 220.652 218.282 208.478C221.631 200.371 219.984 188.261 219.984 188.261L191.802 184.547Z" fill="#407BFF"/>
<path opacity="0.2" d="M191.802 184.547C191.802 184.547 152.966 189.751 144.976 200.363C131.051 218.858 86.957 249.325 86.957 249.325L90.972 262.217C90.972 262.217 151.026 236.883 161.707 215.704C181.328 214.198 213.253 220.652 218.282 208.478C221.631 200.371 219.984 188.261 219.984 188.261L191.802 184.547Z" fill="black"/>
<path d="M91.7853 264.132L83.2383 250.355L88.7043 245.868L96.9243 260.69L91.7853 264.132Z" fill="#407BFF"/>
<path d="M76.2396 255.291C76.6956 255.796 77.3046 256.262 77.7516 256.573C77.8066 256.612 77.8806 256.614 77.9386 256.579C77.9966 256.544 78.0286 256.478 78.0206 256.411C77.9846 256.126 77.6456 253.621 76.7796 253.19C76.5786 253.09 76.3616 253.099 76.1506 253.219C75.8026 253.416 75.6176 253.68 75.6026 254.003C75.5826 254.415 75.8566 254.867 76.2396 255.291ZM77.6196 256.055C76.5406 255.252 75.9206 254.504 75.9446 254.019C75.9546 253.818 76.0766 253.654 76.3186 253.517C76.4306 253.454 76.5276 253.447 76.6246 253.496C77.0906 253.729 77.4506 255.056 77.6196 256.055Z" fill="#407BFF"/>
<path d="M77.7229 256.547C77.7409 256.567 77.7639 256.583 77.7899 256.593C77.8449 256.614 77.9069 256.605 77.9549 256.569C78.0269 256.514 79.7119 255.217 79.7449 254.184C79.7539 253.906 79.6489 253.67 79.4349 253.482C79.1769 253.257 78.8919 253.217 78.6319 253.368C77.9209 253.781 77.5149 255.628 77.6819 256.466C77.6879 256.497 77.7019 256.524 77.7229 256.547ZM79.2659 253.797C79.3619 253.903 79.4059 254.026 79.4009 254.172C79.3809 254.788 78.5199 255.646 77.9869 256.1C77.9599 255.261 78.3369 253.935 78.8039 253.664C78.8929 253.612 79.0189 253.574 79.2089 253.74C79.2299 253.759 79.2489 253.778 79.2659 253.797Z" fill="#407BFF"/>
<path d="M155.387 163.889L149.514 158.21L145.43 166.154C145.43 166.154 152.573 170.065 154.357 168.278L155.387 163.889Z" fill="#FFC3BD"/>
<path d="M141.702 158.15L140.641 164.705L145.432 166.155L149.516 158.211L141.702 158.15Z" fill="#FFC3BD"/>
<path d="M219.622 120.25C218.876 118.301 217.561 116.363 215.475 116.394C215.041 116.4 212.493 116.441 212.012 116.454C209.61 116.519 206.61 116.678 203.706 117.043C198.708 117.672 191.5 118.766 187.198 119.919C184.702 120.596 182.297 121.45 180.384 122.176C180.36 122.186 180.335 122.195 180.311 122.204C178.069 123.08 176.69 125.339 176.915 127.736C177.911 138.308 180.404 167.657 178.963 182.853L219.985 188.26C222.452 180.434 223.429 162.526 223.446 147.925C223.459 139.132 222.671 128.215 219.622 120.25Z" fill="#263238"/>
<path opacity="0.2" d="M223.244 140.389L222.43 140.453L217.227 144.947L211.855 163.485L193.375 166.708C197.862 168.977 210.92 169.441 218.645 167.395C221.239 166.708 223.047 164.354 223.16 161.673C223.355 157.037 223.445 152.335 223.445 147.93C223.444 145.539 223.392 142.99 223.244 140.389Z" fill="black"/>
<path d="M156.898 146.437C156.898 146.437 160.501 144.442 167.275 146.383C174.048 148.324 178.807 146.06 178.807 146.06L181.331 150.8L158.325 151.603L156.898 146.437Z" fill="#407BFF"/>
<path opacity="0.8" d="M156.898 146.437C156.898 146.437 160.501 144.442 167.275 146.383C174.048 148.324 178.807 146.06 178.807 146.06L181.331 150.8L158.325 151.603L156.898 146.437Z" fill="white"/>
<path d="M156.898 146.437C156.898 146.437 156.748 144.987 152.378 144.842C143.584 144.551 139.871 142.301 139.871 142.301L139.512 144.572L158.325 151.603L156.898 146.437Z" fill="#407BFF"/>
<path opacity="0.8" d="M156.898 146.437C156.898 146.437 156.748 144.987 152.378 144.842C143.584 144.551 139.871 142.301 139.871 142.301L139.512 144.572L158.325 151.603L156.898 146.437Z" fill="white"/>
<path d="M164.285 180.176L148.041 175.535C147.638 175.42 147.298 175.075 147.186 174.668L138.852 144.506C138.663 143.821 139.186 143.294 139.864 143.488L155.373 147.919L164.285 180.176Z" fill="#407BFF"/>
<path d="M189.615 181.587L168.213 180.395L159.301 148.139L180.953 149.345C181.425 149.371 181.878 149.751 182.011 150.232L190.388 180.552C190.548 181.131 190.185 181.618 189.615 181.587Z" fill="#407BFF"/>
<path d="M164.284 180.176L168.212 180.395L159.3 148.138L155.371 147.919L164.284 180.176Z" fill="#407BFF"/>
<path opacity="0.3" d="M164.284 180.176L168.212 180.395L159.3 148.138L155.371 147.919L164.284 180.176Z" fill="black"/>
<path d="M221.629 127.573C221.841 129.022 221.979 130.235 222.074 131.552C222.178 132.844 222.253 134.133 222.307 135.424C222.397 138.006 222.377 140.597 222.22 143.197C221.909 148.395 221.098 153.666 219.327 158.891C219.306 158.976 219.151 159.411 219.023 159.724C218.886 160.05 218.727 160.364 218.561 160.665C218.222 161.25 217.834 161.793 217.433 162.236C216.625 163.146 215.777 163.793 214.971 164.288C213.35 165.274 211.86 165.792 210.432 166.206C207.582 167.012 204.925 167.266 202.311 167.441C197.079 167.71 192.1 167.36 187.031 166.583L187.284 161.056C191.975 160.593 196.795 159.995 201.264 159.089C203.491 158.644 205.67 158.049 207.464 157.321C208.349 156.962 209.132 156.528 209.552 156.163C209.762 155.984 209.861 155.84 209.843 155.817C209.847 155.803 209.792 155.829 209.756 155.886C209.728 155.916 209.706 155.955 209.681 155.998C209.654 156.023 209.616 156.175 209.664 155.962C210.162 153.883 210.505 151.718 210.766 149.51C210.975 147.286 211.123 145.035 211.163 142.754C211.185 140.473 211.161 138.176 211.058 135.876C211.012 134.726 210.949 133.576 210.859 132.434L210.715 130.729L210.567 129.123L221.629 127.573Z" fill="#FFC3BD"/>
<path d="M221.633 118.74C216.767 115.024 210.058 115.135 207.309 124.905C205.507 131.309 206.475 144.193 206.475 144.193L225.882 143.796C228.055 133.554 226.549 122.495 221.633 118.74Z" fill="#263238"/>
<path d="M201.802 100.731L197.719 105.521L192.161 112.05C192.504 112.895 192.808 113.759 193.031 114.603C193.994 118.066 190.875 118.769 188.008 120.517C188.008 120.517 183.741 126.172 193.965 124.538C204.189 122.904 205.7 117.544 205.7 117.544C201.149 114.39 201.48 106.708 201.802 100.731Z" fill="#FFC3BD"/>
<path d="M197.12 123.849C196.179 124.113 195.132 124.357 193.968 124.537C192.16 124.823 190.806 124.886 189.802 124.791L189.57 125.975C189.2 126.239 189.112 127.626 191.447 129.279C193.914 128.773 197.747 126.656 197.12 123.849Z" fill="#407BFF"/>
<path d="M203.934 115.796C203.934 115.796 201.995 120.99 194.951 122.889C195.987 125.643 194.312 128.772 194.312 128.772C194.312 128.772 204.162 125.394 206.214 122.023C208.266 118.652 207.38 116.683 207.38 116.683C206.39 116.185 205.255 115.869 203.934 115.796Z" fill="#263238"/>
<path d="M190.026 128.535C190.026 128.535 190.097 124.24 191.36 122.801C190.699 120.862 191.052 119.827 192.064 118.11C190.537 118.521 188.143 119.319 186.762 121.57C185.381 123.821 186.318 128.594 190.026 128.535Z" fill="#263238"/>
<path opacity="0.2" d="M192.16 112.05C192.504 112.895 192.807 113.759 193.03 114.603C195.369 113.693 198.157 110.547 198.064 108.012C198.029 107.059 197.893 106.155 197.717 105.521L192.16 112.05Z" fill="black"/>
<path d="M178.612 89.2481C176.678 93.2991 178.34 102.914 187.488 99.0911C196.636 95.2681 181.751 82.6731 178.612 89.2481Z" fill="#263238"/>
<path d="M198.689 97.6638C197.853 99.4138 198.571 103.569 202.524 101.917C206.476 100.264 200.045 94.8228 198.689 97.6638Z" fill="#263238"/>
<path d="M199.797 100.462C198.521 101.923 198.093 106.118 202.345 105.591C206.596 105.065 201.869 98.0925 199.797 100.462Z" fill="#263238"/>
<path d="M200.801 89.5356C202.462 97.2856 203.823 101.724 201.115 106.83C197.041 114.511 186.786 113.972 182.872 106.951C179.349 100.632 177.224 89.0196 183.741 83.6606C190.161 78.3816 199.14 81.7856 200.801 89.5356Z" fill="#FFC3BD"/>
<path d="M199.427 80.5243C197.841 73.6503 188.618 76.0413 183.917 80.2013C179.138 84.4303 178.013 87.6293 174.047 90.0863C181.366 91.0573 191.716 88.1913 193.655 85.7243C193.435 88.2363 195.355 91.1063 196.809 91.9873C196.564 94.1473 196.827 98.4583 196.827 98.4583L200.171 96.7603L204.065 95.1973C209.781 85.5033 206.395 79.5113 199.427 80.5243Z" fill="#263238"/>
<path d="M191.089 94.8665C190.962 94.8665 190.851 94.7755 190.828 94.6465C190.804 94.5025 190.9 94.3665 191.044 94.3415L201.883 92.4905C202.033 92.4645 202.163 92.5635 202.189 92.7065C202.213 92.8505 202.117 92.9865 201.973 93.0115L191.134 94.8625C191.118 94.8645 191.104 94.8665 191.089 94.8665Z" fill="white"/>
<path d="M189.641 101.301C189.634 101.301 189.627 101.301 189.62 101.3C187.62 101.286 185.415 99.1504 184.705 96.5404C184.283 94.9914 184.45 93.5724 185.162 92.6464C185.644 92.0204 186.325 91.6904 187.132 91.6904C187.139 91.6904 187.147 91.6904 187.153 91.6904C189.153 91.7044 191.358 93.8404 192.068 96.4504C192.489 97.9994 192.322 99.4184 191.61 100.344C191.128 100.97 190.447 101.301 189.641 101.301ZM187.133 92.2194C186.496 92.2194 185.96 92.4784 185.581 92.9704C184.979 93.7524 184.843 95.0344 185.215 96.4024C185.867 98.7994 187.846 100.759 189.624 100.773C190.269 100.794 190.81 100.518 191.191 100.022C191.793 99.2414 191.929 97.9584 191.558 96.5904C190.906 94.1934 188.927 92.2334 187.149 92.2194C187.144 92.2194 187.138 92.2194 187.133 92.2194Z" fill="white"/>
<path d="M183.445 98.0638C183.397 98.0638 183.349 98.0508 183.306 98.0238C183.182 97.9478 183.143 97.7848 183.219 97.6598C183.851 96.6308 185.201 96.9198 185.256 96.9328C185.399 96.9648 185.488 97.1058 185.456 97.2478C185.424 97.3908 185.282 97.4768 185.141 97.4488C185.13 97.4458 184.104 97.2308 183.67 97.9368C183.62 98.0188 183.534 98.0638 183.445 98.0638Z" fill="white"/>
<path d="M205.45 95.4704C204.954 97.6284 203.599 99.3914 202.158 100.376C199.991 101.858 198.293 100.015 198.382 97.4404C198.461 95.1224 199.685 91.5574 202.108 91.1114C204.495 90.6714 206.017 93.0024 205.45 95.4704Z" fill="#FFC3BD"/>
<path d="M188.44 96.0462C188.726 96.6212 188.659 97.2502 188.29 97.4502C187.921 97.6502 187.389 97.3462 187.103 96.7702C186.817 96.1952 186.884 95.5662 187.253 95.3662C187.623 95.1662 188.154 95.4702 188.44 96.0462Z" fill="#263238"/>
<path d="M182.105 98.647C182.36 99.237 182.258 99.861 181.878 100.041C181.498 100.221 180.984 99.888 180.73 99.297C180.476 98.706 180.577 98.083 180.957 97.903C181.336 97.724 181.851 98.056 182.105 98.647Z" fill="#263238"/>
<path d="M178.904 95.1162C179.02 95.0822 179.118 94.9942 179.158 94.8712C179.689 93.2392 181.03 92.8232 181.043 92.8192C181.243 92.7602 181.357 92.5492 181.297 92.3502C181.238 92.1512 181.029 92.0372 180.83 92.0952L180.828 92.0962C180.757 92.1172 179.093 92.6342 178.441 94.6382C178.376 94.8362 178.485 95.0492 178.683 95.1132C178.757 95.1372 178.834 95.1362 178.904 95.1162Z" fill="#263238"/>
<path d="M181.933 103.359C181.926 103.359 181.92 103.359 181.913 103.359C180.087 103.346 178.075 101.399 177.427 99.019C177.042 97.604 177.195 96.308 177.847 95.462C178.289 94.888 178.914 94.584 179.654 94.584C179.661 94.584 179.668 94.584 179.674 94.585C181.499 94.598 183.512 96.545 184.16 98.925C184.545 100.339 184.391 101.635 183.74 102.481C183.298 103.056 182.673 103.359 181.933 103.359ZM179.654 95.113C179.084 95.113 178.604 95.345 178.265 95.784C177.723 96.488 177.6 97.645 177.936 98.88C178.526 101.047 180.312 102.819 181.917 102.831C181.922 102.831 181.927 102.831 181.932 102.831C182.502 102.831 182.983 102.599 183.322 102.159C183.864 101.455 183.987 100.298 183.651 99.064C183.061 96.897 181.275 95.125 179.671 95.113C179.665 95.113 179.659 95.113 179.654 95.113Z" fill="white"/>
<path d="M184.194 97.7246C184.194 97.7246 184.087 101.156 183.32 103.093C184.521 103.592 185.915 102.601 185.915 102.601L184.194 97.7246Z" fill="#ED847E"/>
<path d="M187.219 104.902C189.645 104.182 190.553 102.267 190.593 102.179C190.637 102.085 190.595 101.973 190.501 101.929C190.406 101.885 190.295 101.927 190.251 102.021C190.241 102.043 189.21 104.225 186.426 104.7C186.322 104.717 186.254 104.815 186.272 104.918C186.289 105.021 186.387 105.09 186.49 105.072C186.747 105.027 186.99 104.97 187.219 104.902Z" fill="#263238"/>
<path d="M189.358 91.3714C189.411 91.3394 189.457 91.2954 189.491 91.2384C189.596 91.0584 189.537 90.8274 189.357 90.7224C187.579 89.6784 186.021 90.4754 185.956 90.5104C185.773 90.5844 185.7 90.8344 185.798 91.0194C185.895 91.2034 186.123 91.2744 186.307 91.1784C186.372 91.1454 187.579 90.5524 188.975 91.3734C189.098 91.4444 189.244 91.4394 189.358 91.3714Z" fill="#263238"/>
<path d="M189.273 161.393L183.008 158.742L183.221 166.706C183.221 166.706 189.431 169.221 190.462 165.911L189.273 161.393Z" fill="#FFC3BD"/>
<path d="M175.207 160.525L176.587 166.219L183.221 166.706L183.008 158.742L175.207 160.525Z" fill="#FFC3BD"/>
</svg>
