<svg width="80" height="80" viewBox="0 0 80 80" fill="none" xmlns="http://www.w3.org/2000/svg">
<path d="M17 16.6667C17 14.8986 17.7024 13.2029 18.9526 11.9526C20.2029 10.7024 21.8986 10 23.6667 10H39.5C39.721 10 39.933 10.0878 40.0893 10.2441C40.2455 10.4004 40.3333 10.6123 40.3333 10.8333V26.6667C40.3333 28.4348 41.0357 30.1305 42.286 31.3807C43.5362 32.631 45.2319 33.3333 47 33.3333H62.8333C63.0543 33.3333 63.2663 33.4211 63.4226 33.5774C63.5789 33.7337 63.6667 33.9457 63.6667 34.1667V63.3333C63.6667 65.1014 62.9643 66.7971 61.714 68.0474C60.4638 69.2976 58.7681 70 57 70H23.6667C21.8986 70 20.2029 69.2976 18.9526 68.0474C17.7024 66.7971 17 65.1014 17 63.3333V16.6667Z" fill="#FFDCDD"/>
<path d="M43.332 26.6669V12.0135C43.3317 11.8485 43.3805 11.6871 43.472 11.5498C43.5635 11.4125 43.6938 11.3054 43.8463 11.2422C43.9987 11.179 44.1665 11.1625 44.3284 11.1948C44.4902 11.2271 44.6388 11.3067 44.7554 11.4235L61.9087 28.5769C62.0255 28.6934 62.1052 28.842 62.1374 29.0039C62.1697 29.1657 62.1532 29.3335 62.09 29.486C62.0268 29.6384 61.9198 29.7687 61.7825 29.8602C61.6451 29.9518 61.4837 30.0005 61.3187 30.0002H46.6654C45.7813 30.0002 44.9335 29.649 44.3083 29.0239C43.6832 28.3988 43.332 27.5509 43.332 26.6669Z" fill="#ED1C24"/>
<path d="M29.7031 48.5449H33.1426C34.877 48.5449 36.0723 49.6992 36.0723 51.4395C36.0723 53.1738 34.8359 54.334 33.0547 54.334H31.4727V57H29.7031V48.5449ZM31.4727 49.9453V52.9512H32.668C33.6816 52.9512 34.2734 52.4121 34.2734 51.4453C34.2734 50.4844 33.6875 49.9453 32.6738 49.9453H31.4727ZM37.1211 48.5449H40.3496C42.8867 48.5449 44.3809 50.0566 44.3809 52.7402C44.3809 55.4238 42.8867 57 40.3496 57H37.1211V48.5449ZM38.8906 50.0039V55.5352H40.1387C41.7207 55.5352 42.5762 54.5742 42.5762 52.7461C42.5762 50.9766 41.6973 50.0039 40.1387 50.0039H38.8906ZM47.293 57H45.5234V48.5449H51.0605V50.0039H47.293V52.2715H50.7324V53.6719H47.293V57Z" fill="#ED1C24"/>
</svg>
